<svg width="166" height="40" viewBox="0 0 340 79" fill="none" xmlns="http://www.w3.org/2000/svg">
<path d="M2.03199 78.8784C1.81443 78.881 1.59799 78.8468 1.39194 78.7771C0.982453 78.6298 0.627943 78.3612 0.375995 78.0073C0.131918 77.6448 0.00111189 77.2182 9.95465e-05 76.7816C-0.00431443 76.327 0.138167 75.8831 0.406472 75.5154L14.9752 55.6518L1.83896 41.5517C1.47356 41.1573 1.27045 40.6402 1.27003 40.1032V2.11813C1.2702 1.70014 1.39387 1.29145 1.62561 0.943126C1.85279 0.602917 2.17388 0.335553 2.55012 0.1733C2.79641 0.0645998 3.06307 0.00935134 3.33241 0.011227C3.46745 -0.00374234 3.60374 -0.00374234 3.73879 0.011227C4.12579 0.102999 4.47834 0.303347 4.75473 0.588592L22.6659 18.9025L30.0315 1.28752C30.1841 0.912257 30.4459 0.591202 30.7833 0.365761C31.1214 0.13487 31.5215 0.0112813 31.9313 0.011227C32.3464 0.00749763 32.7519 0.135178 33.0895 0.375884C33.4286 0.612579 33.6902 0.943803 33.8413 1.32805L41.0342 19.5609L46.7032 13.7669C46.98 13.4821 47.3324 13.2818 47.7192 13.1895C47.8544 13.18 47.9902 13.18 48.1255 13.1895C48.3976 13.1924 48.6667 13.2474 48.918 13.3516L57.9091 17.2919C58.1766 17.4086 58.4156 17.5813 58.6101 17.7984C58.8095 18.0168 58.9586 18.2761 59.047 18.5581L62.8872 30.3486C62.9946 30.675 63.0258 31.0214 62.9787 31.3616C62.9267 31.692 62.8018 32.0069 62.6129 32.2834C62.4245 32.5519 62.1735 32.7709 61.8815 32.9215C61.5901 33.0743 61.2659 33.1543 60.9366 33.1545L60.4693 33.1038L50.1879 30.9969V48.0852C50.1887 48.3601 50.1334 48.6324 50.0253 48.8854C49.925 49.143 49.7729 49.3774 49.5783 49.5742L30.3769 69.215C30.1504 69.446 29.8717 69.6197 29.5642 69.7215L2.66188 78.8987C2.4521 78.9674 2.23249 79.0016 2.01167 78.9999L2.03199 78.8784ZM7.68066 72.6488L25.2566 66.6624L17.8401 58.7514L7.68066 72.6488ZM7.18285 41.1567L27.3494 62.793L29.9096 34.4308L7.18285 41.1567ZM31.5656 61.9928L45.2707 47.9636L33.8718 36.3047L31.5656 61.9928ZM35.0909 31.6047L46.1241 42.8888V20.3206L35.0909 31.6047ZM5.42525 37.3176L28.1825 30.5411L5.37446 7.24359L5.42525 37.3176ZM25.8864 22.1844L32.1752 28.6267L37.9051 22.782L31.911 7.63863L25.8864 22.1844ZM50.2692 26.6109L57.9294 28.181L55.4302 20.6954L50.2082 18.3859L50.2692 26.6109Z" fill="#4A76F6"/>
<path d="M95.08 60V18H109.42C114.34 18 118.38 18.88 121.54 20.64C124.74 22.36 127.1 24.8 128.62 27.96C130.18 31.08 130.96 34.76 130.96 39C130.96 43.24 130.18 46.94 128.62 50.1C127.1 53.22 124.74 55.66 121.54 57.42C118.38 59.14 114.34 60 109.42 60H95.08ZM102.76 53.4H109.06C112.58 53.4 115.36 52.84 117.4 51.72C119.44 50.56 120.9 48.92 121.78 46.8C122.66 44.64 123.1 42.04 123.1 39C123.1 36 122.66 33.42 121.78 31.26C120.9 29.1 119.44 27.44 117.4 26.28C115.36 25.12 112.58 24.54 109.06 24.54H102.76V53.4Z" fill="#4A76F6"/>
<path d="M147.816 60.72C145.256 60.72 143.156 60.32 141.516 59.52C139.876 58.68 138.656 57.58 137.856 56.22C137.056 54.86 136.656 53.36 136.656 51.72C136.656 48.96 137.736 46.72 139.896 45C142.056 43.28 145.296 42.42 149.616 42.42H157.176V41.7C157.176 39.66 156.596 38.16 155.436 37.2C154.276 36.24 152.836 35.76 151.116 35.76C149.556 35.76 148.196 36.14 147.036 36.9C145.876 37.62 145.156 38.7 144.876 40.14H137.376C137.576 37.98 138.296 36.1 139.536 34.5C140.816 32.9 142.456 31.68 144.456 30.84C146.456 29.96 148.696 29.52 151.176 29.52C155.416 29.52 158.756 30.58 161.196 32.7C163.636 34.82 164.856 37.82 164.856 41.7V60H158.316L157.596 55.2C156.716 56.8 155.476 58.12 153.876 59.16C152.316 60.2 150.296 60.72 147.816 60.72ZM149.556 54.72C151.756 54.72 153.456 54 154.656 52.56C155.896 51.12 156.676 49.34 156.996 47.22H150.456C148.416 47.22 146.956 47.6 146.076 48.36C145.196 49.08 144.756 49.98 144.756 51.06C144.756 52.22 145.196 53.12 146.076 53.76C146.956 54.4 148.116 54.72 149.556 54.72Z" fill="#4A76F6"/>
<path d="M185.035 60C181.915 60 179.415 59.24 177.535 57.72C175.655 56.2 174.715 53.5 174.715 49.62V36.66H169.615V30.24H174.715L175.615 22.26H182.395V30.24H190.435V36.66H182.395V49.68C182.395 51.12 182.695 52.12 183.295 52.68C183.935 53.2 185.015 53.46 186.535 53.46H190.255V60H185.035Z" fill="#4A76F6"/>
<path d="M207.289 60.72C204.729 60.72 202.629 60.32 200.989 59.52C199.349 58.68 198.129 57.58 197.329 56.22C196.529 54.86 196.129 53.36 196.129 51.72C196.129 48.96 197.209 46.72 199.369 45C201.529 43.28 204.769 42.42 209.089 42.42H216.649V41.7C216.649 39.66 216.069 38.16 214.909 37.2C213.749 36.24 212.309 35.76 210.589 35.76C209.029 35.76 207.669 36.14 206.509 36.9C205.349 37.62 204.629 38.7 204.349 40.14H196.849C197.049 37.98 197.769 36.1 199.009 34.5C200.289 32.9 201.929 31.68 203.929 30.84C205.929 29.96 208.169 29.52 210.649 29.52C214.889 29.52 218.229 30.58 220.669 32.7C223.109 34.82 224.329 37.82 224.329 41.7V60H217.789L217.069 55.2C216.189 56.8 214.949 58.12 213.349 59.16C211.789 60.2 209.769 60.72 207.289 60.72ZM209.029 54.72C211.229 54.72 212.929 54 214.129 52.56C215.369 51.12 216.149 49.34 216.469 47.22H209.929C207.889 47.22 206.429 47.6 205.549 48.36C204.669 49.08 204.229 49.98 204.229 51.06C204.229 52.22 204.669 53.12 205.549 53.76C206.429 54.4 207.589 54.72 209.029 54.72Z" fill="#4A76F6"/>
<path d="M233.038 60V36.66H228.958V30.24H233.038V26.76C233.038 23.16 233.938 20.6 235.738 19.08C237.578 17.56 240.058 16.8 243.178 16.8H246.478V23.34H244.378C243.058 23.34 242.118 23.6 241.558 24.12C240.998 24.64 240.718 25.52 240.718 26.76V30.24H247.138V36.66H240.718V60H233.038Z" fill="#4A76F6"/>
<path d="M266.328 60.72C263.448 60.72 260.848 60.06 258.528 58.74C256.248 57.42 254.428 55.6 253.068 53.28C251.748 50.92 251.088 48.2 251.088 45.12C251.088 42.04 251.768 39.34 253.128 37.02C254.488 34.66 256.308 32.82 258.588 31.5C260.908 30.18 263.508 29.52 266.388 29.52C269.228 29.52 271.788 30.18 274.068 31.5C276.388 32.82 278.208 34.66 279.528 37.02C280.888 39.34 281.568 42.04 281.568 45.12C281.568 48.2 280.888 50.92 279.528 53.28C278.208 55.6 276.388 57.42 274.068 58.74C271.748 60.06 269.168 60.72 266.328 60.72ZM266.328 54.06C268.328 54.06 270.068 53.32 271.548 51.84C273.028 50.32 273.768 48.08 273.768 45.12C273.768 42.16 273.028 39.94 271.548 38.46C270.068 36.94 268.348 36.18 266.388 36.18C264.348 36.18 262.588 36.94 261.108 38.46C259.668 39.94 258.948 42.16 258.948 45.12C258.948 48.08 259.668 50.32 261.108 51.84C262.588 53.32 264.328 54.06 266.328 54.06Z" fill="#4A76F6"/>
<path d="M288.435 60V16.8H296.115V60H288.435Z" fill="#4A76F6"/>
<path d="M317.643 60.72C314.842 60.72 312.342 60.04 310.143 58.68C307.943 57.32 306.202 55.46 304.923 53.1C303.643 50.74 303.003 48.06 303.003 45.06C303.003 42.06 303.643 39.4 304.923 37.08C306.202 34.72 307.943 32.88 310.143 31.56C312.342 30.2 314.842 29.52 317.643 29.52C319.883 29.52 321.842 29.94 323.523 30.78C325.202 31.62 326.563 32.8 327.603 34.32V16.8H335.283V60H328.443L327.603 55.74C326.643 57.06 325.363 58.22 323.762 59.22C322.202 60.22 320.163 60.72 317.643 60.72ZM319.262 54C321.742 54 323.762 53.18 325.322 51.54C326.923 49.86 327.723 47.72 327.723 45.12C327.723 42.52 326.923 40.4 325.322 38.76C323.762 37.08 321.742 36.24 319.262 36.24C316.822 36.24 314.803 37.06 313.202 38.7C311.602 40.34 310.803 42.46 310.803 45.06C310.803 47.66 311.602 49.8 313.202 51.48C314.803 53.16 316.822 54 319.262 54Z" fill="#4A76F6"/>
</svg>
